<svg width="1292" height="359" viewBox="0 0 1292 359" fill="none" xmlns="http://www.w3.org/2000/svg">
<path d="M998.257 240.007C998.257 170.45 1051.16 122.765 1114.56 122.765C1168.77 122.765 1214.24 156.014 1221.67 206.322C1222.11 207.635 1220.8 209.384 1219.05 209.384H1170.96C1167.46 209.384 1166.58 208.509 1166.15 207.196C1159.59 184.011 1138.6 170.011 1114.12 170.011C1079.58 170.011 1055.97 198.886 1055.97 240.007C1055.97 281.128 1080.45 311.753 1114.12 311.753C1138.16 311.753 1158.71 298.628 1166.15 274.13C1166.58 272.817 1167.46 272.379 1168.77 272.379H1219.05C1220.8 272.379 1222.11 273.692 1221.67 275.443C1212.05 327.938 1165.71 359 1113.68 359C1049.41 359 998.257 312.19 998.257 240.007Z" fill="#1A212B"/>
<path d="M920.769 42.2715C920.769 40.9587 921.645 39.6459 922.957 39.6459H974.547C976.295 39.6459 977.169 40.9587 977.169 42.2715V89.5181C977.169 90.8309 976.295 92.1437 974.547 92.1437H922.957C921.645 92.1437 920.769 90.8309 920.769 89.5181V42.2715ZM921.207 130.641C921.207 129.329 922.081 128.016 923.393 128.016H974.109C975.859 128.016 976.733 129.329 976.733 130.641V352C976.733 353.313 975.859 354.187 974.109 354.187H923.393C922.081 354.187 921.207 353.313 921.207 352V130.641Z" fill="#1A212B"/>
<path d="M787.86 358.562C723.59 358.562 670.253 314.377 670.253 239.132C670.253 163.888 725.341 122.326 785.674 122.326C846.008 122.326 899.348 163.886 899.348 244.381V253.13C899.348 254.881 897.6 256.63 895.414 256.63H726.653C731.024 292.502 757.257 314.815 789.61 314.815C810.16 314.815 830.707 307.815 841.2 289.002C841.638 288.128 842.512 287.692 843.824 287.692H893.664C895.414 287.692 896.726 289.441 896.288 291.19C880.987 338.438 833.769 358.562 787.86 358.562ZM784.8 166.073C755.069 166.073 730.15 184.886 726.214 216.82H841.638C839.014 186.199 816.279 166.073 784.8 166.073Z" fill="#1A212B"/>
<path d="M534.897 359C468.877 359 415.975 313.064 415.975 240.007C415.975 166.95 469.753 122.765 534.897 122.765C600.04 122.765 653.816 167.824 653.816 240.007C653.816 312.19 600.479 359 534.897 359ZM534.897 311.753C571.186 311.753 596.107 283.317 596.107 240.007C596.107 196.696 571.186 170.011 534.897 170.011C498.608 170.011 473.687 198.447 473.687 240.007C473.687 281.566 498.17 311.753 534.897 311.753Z" fill="#1A212B"/>
<path d="M297.759 293.817V170.888H262.344C260.596 170.888 259.72 169.575 259.72 168.262V130.641C259.72 129.329 260.596 128.016 262.344 128.016H297.759V75.5204C297.759 74.2076 298.633 72.8948 300.381 72.8948H350.661C351.971 72.8948 353.283 74.2076 353.283 75.5204V128.016H402.687C404.437 128.016 405.311 129.329 405.311 130.641V168.262C405.311 169.575 404.437 170.888 402.687 170.888H353.283V282.881C353.283 306.505 360.717 310.441 378.642 310.441H402.687C404.437 310.441 405.311 311.753 405.311 313.066V351.564C405.311 352.877 404.437 354.187 403.125 354.187C388.259 354.626 378.642 354.626 360.717 354.626C322.242 354.626 297.759 343.251 297.759 293.817Z" fill="#1A212B"/>
<path d="M193.954 54.9565L45.7418 203.258C44.4298 204.571 42.2439 204.135 41.37 201.947L32.6263 175.26C32.6263 174.386 32.6263 173.511 33.5002 172.637L76.7848 129.326H2.89758C0.711672 129.326 -0.600319 127.139 0.273594 125.388L12.9532 100.016C13.3913 99.1414 14.2652 98.7031 15.5772 98.7031H76.787L24.323 46.2076C23.0111 44.8948 23.4491 42.2692 25.635 41.8331L52.304 33.0843C53.1779 32.6459 54.4899 33.0843 54.928 33.5226L98.6483 77.2692V2.89932C98.6483 0.712099 100.398 -0.600679 102.584 0.273758L127.505 12.961C128.379 13.3993 128.817 14.7098 128.817 15.5865V76.8331L181.281 24.7737C183.031 23.0249 185.217 23.8993 186.091 25.6482L194.397 52.3331C194.835 53.2076 194.835 54.082 193.961 54.9587L193.954 54.9565ZM224.559 98.7031C226.745 98.7031 228.057 100.454 227.181 102.641L214.504 127.577C214.065 128.452 212.753 128.888 211.88 128.888H150.67L202.698 181.386C204.448 183.135 204.01 185.322 201.824 186.199L175.155 194.947C174.279 194.947 172.969 194.947 172.531 194.073L128.811 150.762V224.694C128.811 226.881 126.625 228.194 124.875 227.32L99.9536 214.632C99.0797 214.196 98.6416 213.32 98.6416 212.009V173.511C98.6416 172.637 98.6416 171.76 99.0797 171.324L171.219 99.5775C171.657 98.7031 172.531 98.7031 172.969 98.7031H224.559Z" fill="#1A212B"/>
<path d="M1259.16 324.276H1264.9C1267.86 324.276 1269.26 322.885 1269.26 320.489C1269.26 318.092 1267.7 316.541 1264.9 316.541H1259.16V324.276ZM1259.16 329.618V340.169H1252.84V311.362H1266.46C1272.64 311.362 1275.87 315.57 1275.87 320.361C1275.87 324.569 1273.34 327.255 1270.25 328.388V328.55C1270.67 329.1 1270.95 329.521 1271.78 331.364L1276.69 340.201H1269.39L1264.32 330.782C1263.91 329.811 1263.62 329.649 1262.5 329.649H1259.12L1259.16 329.618ZM1285.69 325.96C1285.69 314.145 1275.87 303.465 1263.78 303.465C1251.69 303.465 1241.87 313.983 1241.87 325.96C1241.87 337.937 1251.69 348.325 1263.78 348.325C1275.87 348.325 1285.69 338.034 1285.69 325.96ZM1235.68 325.96C1235.68 310.198 1248.19 297.704 1263.78 297.704C1279.37 297.704 1292 309.647 1292 325.96C1292 342.273 1279.08 354.055 1263.78 354.055C1248.47 354.055 1235.68 341.561 1235.68 325.96Z" fill="#1A212B"/>
</svg>
